<?xml version="1.0" encoding="UTF-8" standalone="no"?>
<svg
   xmlns:dc="http://purl.org/dc/elements/1.1/"
   xmlns:cc="http://creativecommons.org/ns#"
   xmlns:rdf="http://www.w3.org/1999/02/22-rdf-syntax-ns#"
   xmlns:svg="http://www.w3.org/2000/svg"
   xmlns="http://www.w3.org/2000/svg"
   xmlns:sodipodi="http://sodipodi.sourceforge.net/DTD/sodipodi-0.dtd"
   xmlns:inkscape="http://www.inkscape.org/namespaces/inkscape"
   version="1.0"
   width="552.000000pt"
   height="376.000000pt"
   viewBox="0 0 552.000000 376.000000"
   preserveAspectRatio="xMidYMid meet"
   id="svg1004"
   sodipodi:docname="brand.svg"
   inkscape:version="1.0.1 (c497b03c, 2020-09-10)">
  <metadata
     id="metadata1010">
    <rdf:RDF>
      <cc:Work
         rdf:about="">
        <dc:format>image/svg+xml</dc:format>
        <dc:type
           rdf:resource="http://purl.org/dc/dcmitype/StillImage" />
        <dc:title></dc:title>
      </cc:Work>
    </rdf:RDF>
  </metadata>
  <defs
     id="defs1008" />
  <sodipodi:namedview
     pagecolor="#ffffff"
     bordercolor="#666666"
     borderopacity="1"
     objecttolerance="10"
     gridtolerance="10"
     guidetolerance="10"
     inkscape:pageopacity="0"
     inkscape:pageshadow="2"
     inkscape:window-width="1440"
     inkscape:window-height="872"
     id="namedview1006"
     showgrid="false"
     inkscape:zoom="0.81007969"
     inkscape:cx="307.89936"
     inkscape:cy="263.73974"
     inkscape:window-x="0"
     inkscape:window-y="28"
     inkscape:window-maximized="0"
     inkscape:current-layer="layer5" />
  <g
     inkscape:groupmode="layer"
     id="layer2"
     inkscape:label="background"
     style="display:none">
    <path
       id="rect1580"
       style="font-variation-settings:normal;opacity:1;vector-effect:none;fill:#5621f2;fill-opacity:1;fill-rule:evenodd;stroke:none;stroke-width:0.0999997;stroke-linecap:butt;stroke-linejoin:miter;stroke-miterlimit:4;stroke-dasharray:none;stroke-dashoffset:0;stroke-opacity:1;stop-color:#000000;stop-opacity:1"
       d="M 0,0 H 552 V 376 H 0 Z" />
    <path
       style="font-variation-settings:normal;opacity:1;vector-effect:none;fill:#0000ff;fill-opacity:1;stroke-width:0.692487;stroke-linecap:butt;stroke-linejoin:miter;stroke-miterlimit:4;stroke-dasharray:none;stroke-dashoffset:0;stroke-opacity:1;stop-color:#000000;stop-opacity:1"
       d="M 0.08706965,188.01049 V 0 H 276.04353 552 V 188.01049 376.02098 H 276.04353 0.08706965 Z"
       id="path1592" />
  </g>
  <g
     inkscape:groupmode="layer"
     id="layer5"
     inkscape:label="new logo"
     style="display:inline">
    <path
       style="font-variation-settings:normal;display:inline;opacity:1;vector-effect:none;fill:#ff0000;fill-opacity:1;stroke-width:1.23444;stroke-linecap:butt;stroke-linejoin:miter;stroke-miterlimit:4;stroke-dasharray:none;stroke-dashoffset:0;stroke-opacity:1;stop-color:#000000;stop-opacity:1"
       d="m 420.85121,298.11814 c -4.97153,-7.49535 -18.14566,-18.67789 -39.95556,-33.91533 -33.31354,-23.27442 -42.10193,-31.83377 -46.49804,-45.2862 -1.81142,-5.54306 -2.05076,-9.87959 -1.55,-28.08366 0.52609,-19.12485 0.37239,-21.53047 -1.37662,-21.54726 -4.03725,-0.0388 -5.32332,-2.44217 -8.91782,-16.66555 -2.02603,-8.01699 -4.48547,-15.72102 -5.46541,-17.12009 -1.41948,-2.02659 -1.78172,-7.97793 -1.78172,-29.2726 V 79.498608 l 3.76283,-0.752567 c 3.44592,-0.689182 3.711,-1.092062 3.14733,-4.78348 -0.33853,-2.217002 -0.90451,-8.19717 -1.25773,-13.289261 l -0.64221,-9.258349 19.32009,-13.578911 c 23.98358,-16.856582 28.75089,-21.193978 28.75089,-26.158138 0,-4.8227167 3.41186,-7.7891395 8.95876,-7.7891395 5.52905,0 7.75938,2.1489397 8.7664,8.4464825 0.8637,5.401285 2.21796,6.565876 33.34267,28.672992 l 14.65166,10.406714 -0.86316,10.492795 c -0.47474,5.771037 -0.95747,11.881547 -1.07275,13.578911 -0.18063,2.659719 0.37132,3.141545 3.99485,3.487297 l 4.20444,0.40118 -0.74899,26.756646 c -0.56791,20.28746 -1.20303,27.66612 -2.62692,30.51827 -1.03286,2.06889 -3.45938,10.12366 -5.39227,17.89947 l -3.51435,14.13784 -5.46985,0.38655 c -3.00842,0.21259 -5.9201,0.8295 -6.4704,1.37087 -0.99491,0.9788 0.0794,17.25574 6.02657,91.30832 1.71161,21.31256 2.94747,39.46971 2.74634,40.34925 -0.20113,0.87953 -2.03219,-0.91337 -4.06903,-3.98421 z m -65.06065,-227.87788 0.36502,-8.332514 h -13.63532 -13.63531 v 4.78348 c 0,2.630914 0.35092,6.538046 0.77981,8.682515 l 0.77981,3.899035 12.49049,-0.350001 12.49049,-0.350002 z m 32.34782,0.308611 v -8.641125 h -11.11002 -11.11001 v 8.641125 8.641126 h 11.11001 11.11002 z m 36.24281,6.480844 c 0.33563,-1.188154 0.97031,-4.479271 1.41041,-7.313593 1.06554,-6.862317 -0.86928,-7.808376 -15.96925,-7.808376 h -11.8084 v 8.641125 8.641126 h 12.8785 c 11.20981,0 12.95758,-0.279912 13.48874,-2.160282 z"
       id="path1620"
       transform="scale(0.74999999)" />
    <path
       style="font-variation-settings:normal;display:inline;opacity:1;vector-effect:none;fill:#ff0000;fill-opacity:1;stroke-width:1.23444;stroke-linecap:butt;stroke-linejoin:miter;stroke-miterlimit:4;stroke-dasharray:none;stroke-dashoffset:0;stroke-opacity:1;stop-color:#000000;stop-opacity:1"
       d="m 425.3256,350.80754 c -6.49652,-5.55627 -17.60541,-10.97294 -28.15854,-13.73005 -8.99907,-2.35109 -11.81884,-2.46307 -42.05012,-1.66989 l -32.40422,0.85019 -0.15317,-4.16341 c -0.43901,-11.93314 4.7527,-93.95336 6.19202,-97.82349 0.65343,-1.75697 1.70004,-0.1686 4.3655,6.62521 9.45684,24.10389 31.36774,46.86287 64.89688,67.40875 13.06611,8.00661 26.68703,20.74861 30.21707,28.26723 2.47635,5.2744 4.13585,17.93283 2.34001,17.84931 -0.59328,-0.0276 -2.95372,-1.65383 -5.24543,-3.61385 z"
       id="path1622"
       transform="scale(0.74999999)" />
    <path
       style="font-variation-settings:normal;display:inline;opacity:1;vector-effect:none;fill:#ff0000;fill-opacity:1;stroke-width:0.92583;stroke-linecap:butt;stroke-linejoin:miter;stroke-miterlimit:4;stroke-dasharray:none;stroke-dashoffset:0;stroke-opacity:1;stop-color:#000000;stop-opacity:1"
       d="m 342.48761,46.84586 c 13.56057,-2.861921 176.50304,-30.9676 179.53445,-30.9676 1.22863,0 1.46626,1.34361 1.46626,8.29056 v 8.290562 l -3.00896,0.50796 c -5.67003,0.957192 -158.79949,13.805075 -176.14008,14.778522 l -8.33251,0.467762 z"
       id="path1628" />
    <path
       style="font-variation-settings:normal;display:inline;opacity:1;vector-effect:none;fill:#ff0000;fill-opacity:1;stroke-width:0.92583;stroke-linecap:butt;stroke-linejoin:miter;stroke-miterlimit:4;stroke-dasharray:none;stroke-dashoffset:0;stroke-opacity:1;stop-color:#000000;stop-opacity:1"
       d="M 429.97901,76.936584 C 350.38019,60.135541 336.24444,57.043931 337.92517,56.803645 c 1.05512,-0.150846 20.84484,0.98853 43.97716,2.531945 23.13231,1.543415 48.01044,3.085734 55.28474,3.427381 l 13.22597,0.621165 -0.26428,8.40924 c -0.20883,6.64455 -0.55574,8.445885 -1.65306,8.58384 -0.76381,0.09602 -9.09633,-1.452255 -18.51669,-3.440632 z"
       id="path1630" />
    <path
       style="font-variation-settings:normal;display:inline;opacity:1;vector-effect:none;fill:#ff0000;fill-opacity:1;stroke-width:0.92583;stroke-linecap:butt;stroke-linejoin:miter;stroke-miterlimit:4;stroke-dasharray:none;stroke-dashoffset:0;stroke-opacity:1;stop-color:#000000;stop-opacity:1"
       d="M 196.66863,45.380974 C 189.2851,44.95208 156.16335,43.148031 123.06476,41.371976 89.966165,39.595921 60.281586,37.891301 57.099028,37.583932 l -5.786467,-0.558853 v -7.858295 c 0,-7.041473 0.168411,-7.810654 1.620211,-7.399958 0.891116,0.252086 3.911652,0.731039 6.712302,1.06434 8.255846,0.982515 115.866026,15.863335 143.041486,19.780418 23.49151,3.386079 24.46764,3.601533 16.2021,3.576177 -4.83748,-0.01484 -14.8365,-0.377895 -22.22003,-0.806787 z"
       id="path1632" />
    <path
       style="font-variation-settings:normal;display:inline;opacity:1;vector-effect:none;fill:#ff0000;fill-opacity:1;stroke-width:0.92583;stroke-linecap:butt;stroke-linejoin:miter;stroke-miterlimit:4;stroke-dasharray:none;stroke-dashoffset:0;stroke-opacity:1;stop-color:#000000;stop-opacity:1"
       d="m 81.605768,86.599588 c -1.235115,-1.235122 -0.781312,-20.752237 0.4908,-21.108164 1.47723,-0.41331 117.364922,-7.180072 130.311252,-7.608959 l 9.72127,-0.322047 -5.0921,1.297309 c -2.80065,0.713521 -33.42263,7.189889 -68.04885,14.391929 -34.62623,7.202048 -63.802569,13.30203 -64.836324,13.55553 -1.033748,0.253492 -2.17947,0.16098 -2.546048,-0.205598 z"
       id="path1634" />
    <path
       style="font-variation-settings:normal;display:inline;opacity:1;vector-effect:none;fill:#ff0000;fill-opacity:1;stroke-width:1.23444;stroke-linecap:butt;stroke-linejoin:miter;stroke-miterlimit:4;stroke-dasharray:none;stroke-dashoffset:0;stroke-opacity:1;stop-color:#000000;stop-opacity:1"
       d="m 1.7640388,414.65082 c 0.00407,-45.65909 0.3701541,-87.6772 0.8135216,-93.37359 l 0.8061228,-10.35707 46.4040548,0.7153 c 50.053583,0.77155 55.696832,1.4164 68.304402,7.80514 8.19803,4.15426 20.57666,16.56972 24.46538,24.53816 2.83304,5.80526 3.01213,7.41996 3.01213,27.15782 0,20.41399 -0.0928,21.1746 -3.4077,27.9246 -6.58554,13.40997 -17.63993,23.06459 -32.4909,28.37671 -6.37551,2.28049 -10.769151,2.68048 -34.464846,3.13761 -14.936802,0.28816 -28.9632,0.8061 -31.169773,1.15099 l -4.011951,0.62707 v 32.65689 32.6569 H 20.89056 1.7566398 Z M 88.518528,395.28236 c 14.661312,-1.89005 20.634952,-8.88631 20.634952,-24.16743 0,-9.52745 -1.9133,-13.91795 -8.13229,-18.66141 -4.195193,-3.19983 -5.396844,-3.42913 -22.529949,-4.29919 -9.954117,-0.50549 -22.681277,-0.95741 -28.282578,-1.00426 l -10.184183,-0.0852 v 24.68893 24.68893 l 20.059755,-0.0404 c 11.032865,-0.0222 23.828297,-0.52621 28.434293,-1.11999 z"
       id="path1610"
       transform="scale(0.74999999)" />
    <path
       style="font-variation-settings:normal;display:inline;opacity:1;vector-effect:none;fill:#ff0000;fill-opacity:1;stroke-width:1.23444;stroke-linecap:butt;stroke-linejoin:miter;stroke-miterlimit:4;stroke-dasharray:none;stroke-dashoffset:0;stroke-opacity:1;stop-color:#000000;stop-opacity:1"
       d="m 168.40691,410.02989 v -87.63746 l 17.2658,-8.64936 c 9.49619,-4.75716 17.55095,-8.64937 17.89947,-8.64937 0.34852,0 0.63368,13.88752 0.63368,30.86116 0,16.97364 0.44758,30.86116 0.99462,30.86116 0.54704,0 2.90264,-1.4077 5.23467,-3.12821 5.87455,-4.33411 18.48262,-7.98181 27.58866,-7.98181 16.25579,0 29.48005,5.79364 38.51073,16.87182 10.82954,13.28486 12.37291,23.04671 13.38521,84.6614 l 0.6642,40.42813 H 272.1896 253.79524 l -0.41437,-44.78441 -0.41438,-44.7844 -3.09376,-6.009 c -4.8127,-9.34768 -8.14814,-11.20202 -20.14697,-11.2007 -11.97324,10e-4 -16.36982,2.06864 -20.76353,9.76327 -2.81099,4.92284 -2.90351,6.08211 -3.70339,46.40293 -0.45121,22.74468 -0.87272,43.43709 -0.93668,45.98313 l -0.1163,4.62918 h -17.89947 -17.89948 z"
       id="path1612"
       transform="scale(0.74999999)" />
    <path
       style="font-variation-settings:normal;display:inline;opacity:1;vector-effect:none;fill:#ff0000;fill-opacity:1;stroke-width:1.23444;stroke-linecap:butt;stroke-linejoin:miter;stroke-miterlimit:4;stroke-dasharray:none;stroke-dashoffset:0;stroke-opacity:1;stop-color:#000000;stop-opacity:1"
       d="m 343.46401,500.48976 c 2.32676,-0.44443 1.30401,-1.29232 -5.55501,-4.60526 -16.2494,-7.84858 -24.83522,-18.57683 -27.6075,-34.49644 -4.59316,-26.37592 8.44041,-46.26057 34.94719,-53.31709 8.56407,-2.2799 30.53023,-2.22439 39.18635,0.099 3.7342,1.0023 7.27765,1.82896 7.87433,1.83702 1.54015,0.0208 -0.2514,-12.03423 -2.40834,-16.2053 -3.04435,-5.88712 -8.27637,-7.78951 -21.51379,-7.82252 -9.74069,-0.0243 -13.56286,0.58473 -22.56346,3.5952 -9.40202,3.14473 -11.06513,3.3898 -12.56569,1.85167 -3.08262,-3.1598 -11.98604,-20.80878 -11.16644,-22.13491 1.39941,-2.26429 12.51757,-7.29337 22.45927,-10.15901 14.24196,-4.10515 39.36518,-4.03818 51.61136,0.1376 4.75262,1.62057 11.20884,4.80995 14.34716,7.08752 6.35894,4.61485 13.98907,14.88047 15.94826,21.45686 0.7423,2.49167 1.60431,26.55839 2.04449,57.08065 l 0.76107,52.77259 h -18.09355 -18.09354 v -3.80621 c 0,-2.09342 -0.41663,-3.62105 -0.92584,-3.39473 -2.09288,0.93017 -18.36659,8.75881 -20.35161,9.79036 -1.17895,0.61266 -8.67821,1.03827 -16.66503,0.94581 -7.98682,-0.0925 -13.23818,-0.41323 -11.66968,-0.71282 z m 39.23192,-34.05043 c 7.41649,-3.8571 9.30724,-7.22371 10.03707,-17.87166 l 0.67332,-9.82347 -6.0287,-2.32542 c -9.13472,-3.5235 -27.92229,-3.29621 -33.88117,0.40988 -5.6581,3.51903 -7.96748,7.95267 -7.86184,15.09352 0.0912,6.16365 3.00127,12.28462 7.03944,14.80649 5.98198,3.73581 22.59005,3.57575 30.02188,-0.28934 z"
       id="path1614"
       transform="scale(0.74999999)" />
    <path
       style="font-variation-settings:normal;display:inline;opacity:1;vector-effect:none;fill:#ff0000;fill-opacity:1;stroke-width:1.23444;stroke-linecap:butt;stroke-linejoin:miter;stroke-miterlimit:4;stroke-dasharray:none;stroke-dashoffset:0;stroke-opacity:1;stop-color:#000000;stop-opacity:1"
       d="M 454.79849,427.92112 V 358.1749 h 17.68176 17.68176 l 1.14355,4.39362 1.14355,4.39362 5.27867,-3.90692 c 9.6781,-7.1631 22.1986,-9.13753 34.59656,-5.45573 3.50684,1.04142 7.90535,3.20892 9.77448,4.81668 l 3.3984,2.92318 -4.12207,16.78614 c -2.26714,9.23238 -4.66053,16.78614 -5.31865,16.78614 -0.65812,0 -3.61896,-1.41961 -6.57966,-3.1547 -4.52067,-2.64928 -6.91667,-3.15469 -14.95554,-3.15469 -10.2737,0 -13.2733,1.29647 -18.16811,7.85253 -3.79698,5.08564 -4.36909,12.31046 -4.44772,56.16723 l -0.0736,41.04535 h -18.51669 -18.5167 z"
       id="path1616"
       transform="scale(0.74999999)" />
    <path
       style="font-variation-settings:normal;display:inline;opacity:1;vector-effect:none;fill:#ff0000;fill-opacity:1;stroke-width:1.23444;stroke-linecap:butt;stroke-linejoin:miter;stroke-miterlimit:4;stroke-dasharray:none;stroke-dashoffset:0;stroke-opacity:1;stop-color:#000000;stop-opacity:1"
       d="m 597.31557,500.23572 c 0.3858,-0.62422 -1.3868,-1.81107 -3.9391,-2.63742 -20.25558,-6.55809 -35.78118,-23.79804 -41.62034,-46.21606 -2.55408,-9.80578 -2.56466,-35.84137 -0.0185,-45.61659 7.5158,-28.8551 32.27532,-50.05965 58.45223,-50.05965 15.92277,0 29.96278,6.18312 40.68873,17.91902 11.39439,12.46728 16.86058,27.81331 18.27909,51.31761 l 0.78875,13.06931 -21.47131,0.81444 c -11.80922,0.44794 -30.84695,0.81613 -42.30606,0.81821 l -20.83475,0.004 0.806,5.2464 c 1.16942,7.61199 6.41801,14.40689 14.34398,18.56992 9.15727,4.80975 19.08685,4.40722 31.16212,-1.26326 l 8.34594,-3.91921 11.64496,9.96552 c 11.36215,9.7235 11.59943,10.035 9.77024,12.82669 -3.69707,5.64245 -16.40056,13.38824 -27.30567,16.64929 -2.88552,0.86288 -5.2464,2.03646 -5.2464,2.60793 0,0.57147 -7.25429,1.03905 -16.12066,1.03905 -9.49071,0 -15.83217,-0.46679 -15.41921,-1.13497 z m 36.98671,-91.13991 c -1.40521,-6.17566 -5.5859,-13.78506 -9.28269,-16.89571 -4.30731,-3.62435 -10.08405,-4.91707 -18.4015,-4.11787 -7.99031,0.76777 -13.67649,5.20892 -18.01022,14.06674 -4.9495,10.11642 -4.43042,10.34157 23.842,10.34157 h 22.62484 z"
       id="path1618"
       transform="scale(0.74999999)" />
  </g>
  <g
     inkscape:groupmode="layer"
     id="layer4"
     inkscape:label="original"
     style="display:none">
    <g
       transform="matrix(0.1,0,0,-0.1,0,376)"
       fill="#5621f2"
       stroke="none"
       id="g1002">
      <path
         d="M 0,1880 V 0 l 1318,1 c 787,1 1302,5 1279,10 -65,15 -140,59 -189,111 -64,67 -90,138 -92,248 -1,78 2,91 32,152 47,96 120,151 245,184 68,18 218,18 287,-1 30,-8 56,-15 58,-15 9,0 -1,87 -13,110 -25,48 -68,65 -165,64 -79,-1 -141,-16 -241,-58 -13,-6 -27,12 -67,86 -28,51 -48,96 -46,100 3,5 26,19 52,32 132,67 320,92 458,61 43,-9 99,-28 124,-40 57,-29 124,-100 153,-163 21,-46 22,-59 25,-455 l 3,-407 h -141 -140 v 30 30 l -37,-23 c -39,-24 -83,-42 -118,-50 -11,-3 376,-5 860,-5 786,-1 874,1 826,14 -169,45 -289,171 -338,357 -23,88 -23,273 1,352 76,254 288,406 510,368 234,-40 375,-239 380,-533 l 1,-95 -313,-3 -312,-2 v -25 c 0,-91 99,-175 206,-175 43,0 117,24 153,49 18,13 36,19 43,15 26,-15 178,-148 178,-155 0,-4 -19,-25 -42,-48 C 4892,76 4816,37 4736,15 4690,3 4730,1 5103,1 L 5520,0 V 1880 3760 H 2760 0 Z m 2882,1843 c 11,-10 18,-30 18,-53 0,-36 3,-39 181,-166 l 181,-129 -7,-80 c -3,-44 -9,-90 -12,-102 -4,-20 -1,-23 26,-23 h 31 v -215 c 0,-172 -3,-215 -13,-215 -9,0 -23,-42 -43,-125 l -29,-125 h -47 c -45,0 -48,-2 -48,-27 0,-31 67,-895 75,-968 l 6,-50 -30,51 c -44,76 -148,166 -346,299 -271,183 -338,269 -339,435 -1,47 3,124 7,173 l 8,87 h -29 c -28,0 -29,1 -57,125 -19,84 -33,125 -42,125 -10,0 -13,41 -13,214 v 215 l 28,3 c 15,2 26,8 25,13 0,6 -4,51 -8,100 l -7,90 180,128 c 174,124 180,130 179,163 -1,45 26,74 71,74 20,0 44,-7 54,-17 z m 2618,-342 v -90 l -42,-5 c -93,-13 -1951,-167 -1971,-164 -18,2 1943,343 1996,347 15,1 17,-9 17,-88 z M 1279,3250 c 515,-72 941,-132 946,-135 6,-3 -19,-3 -55,0 -36,2 -459,25 -940,50 -481,26 -885,48 -897,51 -22,4 -23,9 -23,84 0,68 3,80 17,80 9,0 437,-59 952,-130 z m 2178,-136 c -3,-3 -12,-4 -19,-1 -8,3 -5,6 6,6 11,1 17,-2 13,-5 z m -1227,-54 c -14,-5 -342,-75 -730,-155 -388,-80 -713,-148 -722,-151 -16,-5 -18,5 -18,110 v 116 l 28,1 c 15,0 342,20 727,43 804,50 748,47 715,36 z m 1818,-35 c 294,-19 547,-35 563,-35 h 29 v -90 c 0,-79 -2,-90 -17,-90 -25,0 -1205,249 -1212,255 -3,3 20,3 50,0 29,-3 294,-21 587,-40 z M 2544,1865 c 87,-150 246,-299 444,-414 170,-99 257,-209 250,-316 l -3,-48 -45,38 c -60,50 -150,92 -241,111 -64,13 -104,14 -298,4 -185,-10 -225,-9 -232,2 -13,21 -11,99 16,443 14,176 25,334 25,350 1,23 7,13 28,-45 15,-42 40,-98 56,-125 z M 1540,1244 v -235 l 33,25 c 102,78 293,85 415,15 56,-32 113,-96 138,-155 43,-99 47,-138 51,-511 l 5,-363 h -140 -140 l -4,338 c -3,336 -3,337 -28,387 -34,67 -72,87 -162,83 -79,-4 -113,-24 -143,-84 -19,-36 -20,-62 -23,-381 l -3,-343 h -140 -139 v 663 662 l 133,67 c 72,37 135,67 140,67 4,1 7,-105 7,-235 z m -796,171 c 110,-19 192,-62 259,-135 84,-90 102,-144 102,-305 0,-113 -3,-138 -24,-188 C 1035,672 945,589 820,548 763,529 727,526 528,522 L 300,518 V 269 20 H 155 10 v 698 c 0,384 3,702 7,705 13,14 644,7 727,-8 z m 3283,-344 c 80,-41 77,-29 37,-182 l -36,-137 -51,32 c -43,27 -59,31 -118,31 -77,0 -109,-17 -144,-76 -19,-32 -20,-55 -23,-376 l -3,-343 h -139 -140 v 530 531 l 138,-3 137,-3 3,-32 3,-33 39,32 c 22,17 61,37 87,44 62,18 161,11 210,-15 z"
         id="path988" />
      <path
         d="m 2470,3261 c 0,-16 3,-43 6,-60 l 7,-32 91,3 91,3 3,58 3,57 h -101 -100 z"
         id="path990" />
      <path
         d="m 2750,3230 v -60 h 80 80 v 60 60 h -80 -80 z"
         id="path992" />
      <path
         d="m 2990,3230 v -60 h 94 93 l 7,38 c 14,86 18,82 -94,82 h -100 z"
         id="path994" />
      <path
         d="M 300,970 V 788 l 198,4 c 182,3 200,5 240,26 59,31 86,90 80,174 -5,66 -26,102 -79,133 -30,18 -55,20 -236,23 l -203,3 z"
         id="path996" />
      <path
         d="m 4495,831 c -40,-24 -61,-49 -80,-94 -29,-70 -35,-67 165,-67 h 179 l -13,44 c -18,60 -48,100 -90,120 -46,22 -123,21 -161,-3 z"
         id="path998" />
      <path
         d="m 2701,499 c -85,-17 -127,-90 -99,-174 19,-58 65,-85 145,-85 72,0 125,18 166,57 25,24 27,33 27,99 v 72 l -37,15 c -50,20 -148,28 -202,16 z"
         id="path1000" />
    </g>
  </g>
</svg>
