<?xml version="1.0" standalone="no"?>
<!DOCTYPE svg PUBLIC "-//W3C//DTD SVG 20010904//EN"
 "http://www.w3.org/TR/2001/REC-SVG-20010904/DTD/svg10.dtd">
<svg version="1.0" xmlns="http://www.w3.org/2000/svg"
 width="552.000000pt" height="376.000000pt" viewBox="0 0 552.000000 376.000000"
 preserveAspectRatio="xMidYMid meet">

<g transform="translate(0.000000,376.000000) scale(0.100000,-0.100000)"
fill="#5621f2" stroke="none">
<path d="M0 1880 l0 -1880 1318 1 c787 1 1302 5 1279 10 -65 15 -140 59 -189
111 -64 67 -90 138 -92 248 -1 78 2 91 32 152 47 96 120 151 245 184 68 18
218 18 287 -1 30 -8 56 -15 58 -15 9 0 -1 87 -13 110 -25 48 -68 65 -165 64
-79 -1 -141 -16 -241 -58 -13 -6 -27 12 -67 86 -28 51 -48 96 -46 100 3 5 26
19 52 32 132 67 320 92 458 61 43 -9 99 -28 124 -40 57 -29 124 -100 153 -163
21 -46 22 -59 25 -455 l3 -407 -141 0 -140 0 0 30 0 30 -37 -23 c-39 -24 -83
-42 -118 -50 -11 -3 376 -5 860 -5 786 -1 874 1 826 14 -169 45 -289 171 -338
357 -23 88 -23 273 1 352 76 254 288 406 510 368 234 -40 375 -239 380 -533
l1 -95 -313 -3 -312 -2 0 -25 c0 -91 99 -175 206 -175 43 0 117 24 153 49 18
13 36 19 43 15 26 -15 178 -148 178 -155 0 -4 -19 -25 -42 -48 -46 -45 -122
-84 -202 -106 -46 -12 -6 -14 367 -14 l417 -1 0 1880 0 1880 -2760 0 -2760 0
0 -1880z m2882 1843 c11 -10 18 -30 18 -53 0 -36 3 -39 181 -166 l181 -129 -7
-80 c-3 -44 -9 -90 -12 -102 -4 -20 -1 -23 26 -23 l31 0 0 -215 c0 -172 -3
-215 -13 -215 -9 0 -23 -42 -43 -125 l-29 -125 -47 0 c-45 0 -48 -2 -48 -27 0
-31 67 -895 75 -968 l6 -50 -30 51 c-44 76 -148 166 -346 299 -271 183 -338
269 -339 435 -1 47 3 124 7 173 l8 87 -29 0 c-28 0 -29 1 -57 125 -19 84 -33
125 -42 125 -10 0 -13 41 -13 214 l0 215 28 3 c15 2 26 8 25 13 0 6 -4 51 -8
100 l-7 90 180 128 c174 124 180 130 179 163 -1 45 26 74 71 74 20 0 44 -7 54
-17z m2618 -342 l0 -90 -42 -5 c-93 -13 -1951 -167 -1971 -164 -18 2 1943 343
1996 347 15 1 17 -9 17 -88z m-4221 -131 c515 -72 941 -132 946 -135 6 -3 -19
-3 -55 0 -36 2 -459 25 -940 50 -481 26 -885 48 -897 51 -22 4 -23 9 -23 84 0
68 3 80 17 80 9 0 437 -59 952 -130z m2178 -136 c-3 -3 -12 -4 -19 -1 -8 3 -5
6 6 6 11 1 17 -2 13 -5z m-1227 -54 c-14 -5 -342 -75 -730 -155 -388 -80 -713
-148 -722 -151 -16 -5 -18 5 -18 110 l0 116 28 1 c15 0 342 20 727 43 804 50
748 47 715 36z m1818 -35 c294 -19 547 -35 563 -35 l29 0 0 -90 c0 -79 -2 -90
-17 -90 -25 0 -1205 249 -1212 255 -3 3 20 3 50 0 29 -3 294 -21 587 -40z
m-1504 -1160 c87 -150 246 -299 444 -414 170 -99 257 -209 250 -316 l-3 -48
-45 38 c-60 50 -150 92 -241 111 -64 13 -104 14 -298 4 -185 -10 -225 -9 -232
2 -13 21 -11 99 16 443 14 176 25 334 25 350 1 23 7 13 28 -45 15 -42 40 -98
56 -125z m-1004 -621 l0 -235 33 25 c102 78 293 85 415 15 56 -32 113 -96 138
-155 43 -99 47 -138 51 -511 l5 -363 -140 0 -140 0 -4 338 c-3 336 -3 337 -28
387 -34 67 -72 87 -162 83 -79 -4 -113 -24 -143 -84 -19 -36 -20 -62 -23 -381
l-3 -343 -140 0 -139 0 0 663 0 662 133 67 c72 37 135 67 140 67 4 1 7 -105 7
-235z m-796 171 c110 -19 192 -62 259 -135 84 -90 102 -144 102 -305 0 -113
-3 -138 -24 -188 -46 -115 -136 -198 -261 -239 -57 -19 -93 -22 -292 -26
l-228 -4 0 -249 0 -249 -145 0 -145 0 0 698 c0 384 3 702 7 705 13 14 644 7
727 -8z m3283 -344 c80 -41 77 -29 37 -182 l-36 -137 -51 32 c-43 27 -59 31
-118 31 -77 0 -109 -17 -144 -76 -19 -32 -20 -55 -23 -376 l-3 -343 -139 0
-140 0 0 530 0 531 138 -3 137 -3 3 -32 3 -33 39 32 c22 17 61 37 87 44 62 18
161 11 210 -15z"/>
<path d="M2470 3261 c0 -16 3 -43 6 -60 l7 -32 91 3 91 3 3 58 3 57 -101 0
-100 0 0 -29z"/>
<path d="M2750 3230 l0 -60 80 0 80 0 0 60 0 60 -80 0 -80 0 0 -60z"/>
<path d="M2990 3230 l0 -60 94 0 93 0 7 38 c14 86 18 82 -94 82 l-100 0 0 -60z"/>
<path d="M300 970 l0 -182 198 4 c182 3 200 5 240 26 59 31 86 90 80 174 -5
66 -26 102 -79 133 -30 18 -55 20 -236 23 l-203 3 0 -181z"/>
<path d="M4495 831 c-40 -24 -61 -49 -80 -94 -29 -70 -35 -67 165 -67 l179 0
-13 44 c-18 60 -48 100 -90 120 -46 22 -123 21 -161 -3z"/>
<path d="M2701 499 c-85 -17 -127 -90 -99 -174 19 -58 65 -85 145 -85 72 0
125 18 166 57 25 24 27 33 27 99 l0 72 -37 15 c-50 20 -148 28 -202 16z"/>
</g>
</svg>
