<?xml version="1.0" encoding="UTF-8" standalone="no"?>
<svg
   xmlns:dc="http://purl.org/dc/elements/1.1/"
   xmlns:cc="http://creativecommons.org/ns#"
   xmlns:rdf="http://www.w3.org/1999/02/22-rdf-syntax-ns#"
   xmlns:svg="http://www.w3.org/2000/svg"
   xmlns="http://www.w3.org/2000/svg"
   xmlns:sodipodi="http://sodipodi.sourceforge.net/DTD/sodipodi-0.dtd"
   xmlns:inkscape="http://www.inkscape.org/namespaces/inkscape"
   version="1.0"
   width="523.00769pt"
   height="373.57434pt"
   viewBox="0 0 523.00769 373.57434"
   preserveAspectRatio="xMidYMid meet"
   id="svg1004"
   sodipodi:docname="new-brand.svg"
   inkscape:version="1.0.1 (c497b03c, 2020-09-10)">
  <metadata
     id="metadata1010">
    <rdf:RDF>
      <cc:Work
         rdf:about="">
        <dc:format>image/svg+xml</dc:format>
        <dc:type
           rdf:resource="http://purl.org/dc/dcmitype/StillImage" />
        <dc:title></dc:title>
      </cc:Work>
    </rdf:RDF>
  </metadata>
  <defs
     id="defs1008" />
  <sodipodi:namedview
     pagecolor="#ffffff"
     bordercolor="#666666"
     borderopacity="1"
     objecttolerance="10"
     gridtolerance="10"
     guidetolerance="10"
     inkscape:pageopacity="0"
     inkscape:pageshadow="2"
     inkscape:window-width="1440"
     inkscape:window-height="900"
     id="namedview1006"
     showgrid="false"
     inkscape:zoom="0.47208078"
     inkscape:cx="234.67742"
     inkscape:cy="312.58662"
     inkscape:window-x="0"
     inkscape:window-y="0"
     inkscape:window-maximized="0"
     inkscape:current-layer="layer6"
     inkscape:document-rotation="0" />
  <g
     inkscape:groupmode="layer"
     id="layer6"
     inkscape:label="new font"
     style="display:inline"
     transform="translate(-0.48062643,-2.9165718)">
    <path
       style="font-variation-settings:normal;display:inline;opacity:1;vector-effect:none;fill:white;fill-opacity:1;stroke-width:1.23444;stroke-linecap:butt;stroke-linejoin:miter;stroke-miterlimit:4;stroke-dasharray:none;stroke-dashoffset:0;stroke-opacity:1;stop-color:#000000;stop-opacity:1"
       d="m 420.85121,298.11814 c -4.97153,-7.49535 -18.14566,-18.67789 -39.95556,-33.91533 -33.31354,-23.27442 -42.10193,-31.83377 -46.49804,-45.2862 -1.81142,-5.54306 -2.05076,-9.87959 -1.55,-28.08366 0.52609,-19.12485 0.37239,-21.53047 -1.37662,-21.54726 -4.03725,-0.0388 -5.32332,-2.44217 -8.91782,-16.66555 -2.02603,-8.01699 -4.48547,-15.72102 -5.46541,-17.12009 -1.41948,-2.02659 -1.78172,-7.97793 -1.78172,-29.2726 V 79.498608 l 3.76283,-0.752567 c 3.44592,-0.689182 3.711,-1.092062 3.14733,-4.78348 -0.33853,-2.217002 -0.90451,-8.19717 -1.25773,-13.289261 l -0.64221,-9.258349 19.32009,-13.578911 c 23.98358,-16.856582 28.75089,-21.193978 28.75089,-26.158138 0,-4.8227167 3.41186,-7.7891395 8.95876,-7.7891395 5.52905,0 7.75938,2.1489397 8.7664,8.4464825 0.8637,5.401285 2.21796,6.565876 33.34267,28.672992 l 14.65166,10.406714 -0.86316,10.492795 c -0.47474,5.771037 -0.95747,11.881547 -1.07275,13.578911 -0.18063,2.659719 0.37132,3.141545 3.99485,3.487297 l 4.20444,0.40118 -0.74899,26.756646 c -0.56791,20.28746 -1.20303,27.66612 -2.62692,30.51827 -1.03286,2.06889 -3.45938,10.12366 -5.39227,17.89947 l -3.51435,14.13784 -5.46985,0.38655 c -3.00842,0.21259 -5.9201,0.8295 -6.4704,1.37087 -0.99491,0.9788 0.0794,17.25574 6.02657,91.30832 1.71161,21.31256 2.94747,39.46971 2.74634,40.34925 -0.20113,0.87953 -2.03219,-0.91337 -4.06903,-3.98421 z m -65.06065,-227.87788 0.36502,-8.332514 h -13.63532 -13.63531 v 4.78348 c 0,2.630914 0.35092,6.538046 0.77981,8.682515 l 0.77981,3.899035 12.49049,-0.350001 12.49049,-0.350002 z m 32.34782,0.308611 v -8.641125 h -11.11002 -11.11001 v 8.641125 8.641126 h 11.11001 11.11002 z m 36.24281,6.480844 c 0.33563,-1.188154 0.97031,-4.479271 1.41041,-7.313593 1.06554,-6.862317 -0.86928,-7.808376 -15.96925,-7.808376 h -11.8084 v 8.641125 8.641126 h 12.8785 c 11.20981,0 12.95758,-0.279912 13.48874,-2.160282 z"
       id="path1620"
       transform="scale(0.74999999)" />
    <path
       id="path1622"
       style="font-variation-settings:normal;display:inline;opacity:1;vector-effect:none;fill:white;fill-opacity:1;stroke-width:1.30986;stroke-linecap:butt;stroke-linejoin:miter;stroke-miterlimit:4;stroke-dasharray:none;stroke-dashoffset:0;stroke-opacity:1;stop-color:#000000;stop-opacity:1"
       d="m 328.59217,221.32511 c -0.23166,-0.009 -0.41868,0.25154 -0.58203,0.74609 -1.43932,4.35748 -7.17225,123.87607 -7.17225,123.87607 13.23835,-7.5228 26.94697,-12.17899 43.4082,-13.52149 2.17668,-0.39131 4.38748,-0.50447 6.92188,-0.36914 1.06877,-0.0261 2.14146,-0.0469 3.23437,-0.0469 30.57854,0 47.65741,9.43153 54.13672,27.68164 0.56295,0.72345 0.98216,1.2049 1.13477,1.21289 1.79584,0.094 0.39236,-21.33681 -2.08399,-27.27539 -3.53004,-8.4654 -17.15069,-22.81328 -30.21679,-31.82813 -33.52915,-23.13316 -55.54084,-45.13138 -64.99768,-72.27059 -1.9991,-5.737 -3.08823,-8.1781 -3.7832,-8.20508 z"
       transform="matrix(0.75000001,0,0,0.75000001,0.48062643,2.9165718)"
       sodipodi:nodetypes="sscccscsssss" />
    <path
       style="font-variation-settings:normal;display:inline;opacity:1;vector-effect:none;fill:white;fill-opacity:1;stroke-width:0.92583;stroke-linecap:butt;stroke-linejoin:miter;stroke-miterlimit:4;stroke-dasharray:none;stroke-dashoffset:0;stroke-opacity:1;stop-color:#000000;stop-opacity:1"
       d="M 429.97901,76.936584 C 350.38019,60.135541 336.24444,57.043931 337.92517,56.803645 c 1.05512,-0.150846 20.84484,0.98853 43.97716,2.531945 23.13231,1.543415 48.01044,3.085734 55.28474,3.427381 l 13.22597,0.621165 -0.26428,8.40924 c -0.20883,6.64455 -0.55574,8.445885 -1.65306,8.58384 -0.76381,0.09602 -9.09633,-1.452255 -18.51669,-3.440632 z"
       id="path1630" />
    <path
       style="font-variation-settings:normal;display:inline;opacity:1;vector-effect:none;fill:white;fill-opacity:1;stroke-width:0.92583;stroke-linecap:butt;stroke-linejoin:miter;stroke-miterlimit:4;stroke-dasharray:none;stroke-dashoffset:0;stroke-opacity:1;stop-color:#000000;stop-opacity:1"
       d="M 196.66863,45.380974 C 189.2851,44.95208 156.16335,43.148031 123.06476,41.371976 89.966165,39.595921 60.281586,37.891301 57.099028,37.583932 l -5.786467,-0.558853 v -7.858295 c 0,-7.041473 0.168411,-7.810654 1.620211,-7.399958 0.891116,0.252086 3.911652,0.731039 6.712302,1.06434 8.255846,0.982515 115.866026,15.863335 143.041486,19.780418 23.49151,3.386079 24.46764,3.601533 16.2021,3.576177 -4.83748,-0.01484 -14.8365,-0.377895 -22.22003,-0.806787 z"
       id="path1632" />
    <path
       style="font-variation-settings:normal;display:inline;opacity:1;vector-effect:none;fill:white;fill-opacity:1;stroke-width:0.92583;stroke-linecap:butt;stroke-linejoin:miter;stroke-miterlimit:4;stroke-dasharray:none;stroke-dashoffset:0;stroke-opacity:1;stop-color:#000000;stop-opacity:1"
       d="m 81.605768,86.599588 c -1.235115,-1.235122 -0.781312,-20.752237 0.4908,-21.108164 1.47723,-0.41331 117.364922,-7.180072 130.311252,-7.608959 l 9.72127,-0.322047 -5.0921,1.297309 c -2.80065,0.713521 -33.42263,7.189889 -68.04885,14.391929 -34.62623,7.202048 -63.802569,13.30203 -64.836324,13.55553 -1.033748,0.253492 -2.17947,0.16098 -2.546048,-0.205598 z"
       id="path1634" />
    <g
       aria-label="Phare"
       transform="scale(1.0999261,0.90915196)"
       id="text2347"
       style="font-style:normal;font-variant:normal;font-weight:normal;font-stretch:normal;font-size:225.456px;line-height:1.25;font-family:'Interstate Cond';-inkscape-font-specification:'Interstate Cond, Normal';font-variant-ligatures:normal;font-variant-caps:normal;font-variant-numeric:normal;font-variant-east-asian:normal;display:inline;fill:white;fill-opacity:1;stroke:none;stroke-width:5.63644">
      <path
         d="m 92.648464,304.08966 c 0,-33.14203 -20.29104,-50.27668 -50.276687,-50.27668 H 0.43696247 V 411.63217 H 28.618962 v -56.58945 h 12.625535 c 26.829264,0 51.403967,-16.9092 51.403967,-50.95306 z m -28.181999,0.45091 c 0,14.42919 -7.440048,22.99652 -21.869232,22.99652 H 28.618962 v -46.21848 h 13.527359 c 16.458288,0 22.320144,10.14552 22.320144,23.22196 z"
         style="font-style:normal;font-variant:normal;font-weight:normal;font-stretch:normal;font-size:225.456px;font-family:'Interstate Cond';-inkscape-font-specification:'Interstate Cond, Normal';font-variant-ligatures:normal;font-variant-caps:normal;font-variant-numeric:normal;font-variant-east-asian:normal;fill:white;fill-opacity:1;stroke-width:5.63644"
         id="path990" />
      <path
         d="m 190.73239,411.63217 v -77.55686 c 0,-27.73109 -6.31277,-43.28755 -31.56384,-43.28755 -8.56733,0 -16.23283,4.28366 -22.09469,10.59643 v -54.10944 l -26.60381,13.30191 v 151.05551 h 26.60381 v -86.12419 c 3.15638,-4.73457 9.92006,-9.92006 15.78192,-9.92006 9.46915,0 11.2728,4.73457 11.2728,19.38921 v 76.65504 z"
         style="font-style:normal;font-variant:normal;font-weight:normal;font-stretch:normal;font-size:225.456px;font-family:'Interstate Cond';-inkscape-font-specification:'Interstate Cond, Normal';font-variant-ligatures:normal;font-variant-caps:normal;font-variant-numeric:normal;font-variant-east-asian:normal;fill:white;fill-opacity:1;stroke-width:5.63644"
         id="path992" />
      <path
         d="m 381.30964,296.87507 c -5.6364,-4.05821 -10.82189,-6.08731 -18.71285,-6.08731 -8.79278,0 -17.13465,5.41094 -21.64377,10.59643 v -8.11642 h -26.60381 v 118.3644 h 26.60381 v -84.546 c 4.50912,-6.53822 10.14552,-10.14552 17.13465,-10.14552 6.31277,0 11.04735,2.25456 15.55647,5.86186 z"
         style="font-style:normal;font-variant:normal;font-weight:normal;font-stretch:normal;font-size:225.456px;font-family:'Interstate Cond';-inkscape-font-specification:'Interstate Cond, Normal';font-variant-ligatures:normal;font-variant-caps:normal;font-variant-numeric:normal;font-variant-east-asian:normal;fill:white;fill-opacity:1;stroke-width:5.63644"
         id="path996" />
      <path
         d="m 473.04555,352.5627 c 0,-32.46566 -13.52736,-61.77494 -43.28755,-61.77494 -25.70199,0 -43.73846,22.09469 -43.73846,61.77494 0,36.52387 16.00737,61.54949 45.31665,61.54949 15.55646,0 29.08382,-6.98914 37.87661,-21.41832 l -18.93831,-14.20373 c -5.18548,6.98914 -9.01824,10.37098 -18.48739,10.37098 -10.37097,0 -17.81102,-8.11642 -18.9383,-26.37835 h 59.74584 c 0.22545,-3.15639 0.45091,-6.76368 0.45091,-9.92007 z M 446.44174,340.61353 H 412.8488 c 1.35273,-17.36011 6.76368,-25.92744 16.68374,-25.92744 11.49826,0 15.55647,11.49826 16.9092,25.92744 z"
         style="font-style:normal;font-variant:normal;font-weight:normal;font-stretch:normal;font-size:225.456px;font-family:'Interstate Cond';-inkscape-font-specification:'Interstate Cond, Normal';font-variant-ligatures:normal;font-variant-caps:normal;font-variant-numeric:normal;font-variant-east-asian:normal;fill:white;fill-opacity:1;stroke-width:5.63644"
         id="path998" />
    </g>
    <path
       style="font-variation-settings:normal;display:inline;opacity:1;vector-effect:none;fill:white;fill-opacity:1;stroke-width:0.92583;stroke-linecap:butt;stroke-linejoin:miter;stroke-miterlimit:4;stroke-dasharray:none;stroke-dashoffset:0;stroke-opacity:1;stop-color:#000000;stop-opacity:1"
       d="m 342.48761,46.84586 c 13.56057,-2.861921 176.50304,-30.9676 179.53445,-30.9676 1.22863,0 1.46626,1.34361 1.46626,8.29056 v 8.290562 l -3.00896,0.50796 c -5.67003,0.957192 -158.79949,13.805075 -176.14008,14.778522 l -8.33251,0.467762 z"
       id="path1628" />
  </g>
  <g
     inkscape:groupmode="layer"
     id="layer2"
     inkscape:label="temp 1"
     style="display:inline">
    <path
       d="m 290.82076,411.63217 v -81.38961 c 0,-25.92744 -11.49826,-39.4548 -39.00389,-39.4548 -14.42919,0 -25.70199,4.05821 -36.52387,11.49825 l 10.82188,19.38922 c 7.44005,-4.96003 13.97828,-7.21459 23.89834,-7.21459 10.59643,0 14.20373,6.31277 14.20373,14.65464 v 9.01824 c -5.18549,-3.15639 -9.46915,-4.73458 -19.84013,-4.73458 -20.96741,0 -36.29841,15.33101 -36.29841,39.4548 0,25.47653 14.20372,41.25845 34.94567,41.25845 7.66551,0 15.78192,-3.83275 21.19287,-10.59643 v 8.11641 z m -26.60381,-31.11293 c -3.38184,5.6364 -9.2437,9.92007 -15.55647,9.92007 -8.79278,0 -13.52736,-6.53823 -13.52736,-18.03648 0,-9.92006 5.41095,-16.45829 12.851,-16.45829 8.11641,0 11.94916,2.02911 16.23283,5.6364 z"
       style="font-style:normal;font-variant:normal;font-weight:normal;font-stretch:normal;font-size:225.456px;line-height:1.25;font-family:'Interstate Cond';-inkscape-font-specification:'Interstate Cond, Normal';font-variant-ligatures:normal;font-variant-caps:normal;font-variant-numeric:normal;font-variant-east-asian:normal;display:inline;fill:white;fill-opacity:1;stroke:none;stroke-width:5.63644"
       id="path994"
       transform="matrix(1.0999261,0,0,0.90915196,-0.48062643,-2.9165718)" />
  </g>
</svg>
